<?xml version="1.0" encoding="UTF-8"?>
<svg id="vegetation" xmlns="http://www.w3.org/2000/svg" width="419.19" height="140.3" viewBox="0 0 419.19 140.3">
  <path d="m244.14,137.16c.85-17.76,1.28-37.17,1.28-58.23v-10.46h1.88c13.75,15.92,29.9,33.23,48.46,51.91.13-4.47.2-7.37.2-8.68,0-16.12-.26-30.1-.79-41.94,1.45.26,2.5.39,3.16.39.72,0,1.74-.13,3.06-.39-.53,15-.79,30.43-.79,46.29,0,5.59.06,13.06.2,22.4h-1.28c-5.53-6.91-13.95-16.32-25.26-28.23l-23.88-25.17c-.13,5.79-.2,10.1-.2,12.93,0,10.07.23,23.13.69,39.18-1.18-.33-2.3-.49-3.36-.49-.92,0-2.04.16-3.36.49Zm110.78-97.31h3.06c1.64.07,3.12.1,4.44.1.99,0,2.96-.03,5.92-.1h7.3l-1.68-4.34c-.86-2.24-3.69-8.95-8.49-20.13l-10.56,24.48Zm-18.36,30.59c11.65-25.46,21.81-48.32,30.5-68.59h1.88c9.21,23.03,18.75,45.92,28.62,68.69-1.78-.33-3.39-.49-4.84-.49-1.51,0-3.19.16-5.03.49-2.43-7.43-5.23-14.9-8.39-22.4l-1.68-3.95c-2.7-.13-6.74-.2-12.14-.2-5.46,0-9.54.07-12.24.2-3.09,7.04-6.48,15.82-10.17,26.35-1.12-.33-2.21-.49-3.26-.49-.72,0-1.81.13-3.26.39Zm-65.14.1c.85-17.76,1.28-37.17,1.28-58.23V1.86h1.88c13.75,15.92,29.9,33.23,48.46,51.91.13-4.47.2-7.37.2-8.68,0-16.12-.26-30.1-.79-41.94,1.45.26,2.5.39,3.16.39.72,0,1.74-.13,3.06-.39-.53,15-.79,30.43-.79,46.29,0,5.59.06,13.06.2,22.4h-1.28c-5.53-6.91-13.95-16.32-25.26-28.23l-23.88-25.17c-.13,5.79-.2,10.1-.2,12.93,0,10.07.23,23.13.69,39.18-1.18-.33-2.3-.49-3.36-.49-.92,0-2.04.16-3.36.49Zm-51.22-30.69h3.06c1.64.07,3.12.1,4.44.1.99,0,2.96-.03,5.92-.1h7.3l-1.68-4.34c-.86-2.24-3.69-8.95-8.49-20.13l-10.56,24.48Zm-18.36,30.59c11.65-25.46,21.81-48.32,30.5-68.59h1.88c9.21,23.03,18.75,45.92,28.62,68.69-1.78-.33-3.39-.49-4.84-.49-1.51,0-3.19.16-5.03.49-2.43-7.43-5.23-14.9-8.39-22.4l-1.68-3.95c-2.7-.13-6.74-.2-12.14-.2-5.46,0-9.54.07-12.24.2-3.09,7.04-6.48,15.82-10.17,26.35-1.12-.33-2.21-.49-3.26-.49-.72,0-1.81.13-3.26.39Zm-40.76-37.7c1.97.2,3.82.3,5.53.3,12.17,0,18.26-4.77,18.26-14.31,0-8.29-5.43-12.43-16.28-12.43-1.91,0-4.24.17-7.01.49-.33,3.62-.49,7.86-.49,12.73v13.22Zm-8.88,38c.66-6.32.99-15.4.99-27.24,0-18.55-.2-32.01-.59-40.36l4.74.2,4.93-.1c2.7-.13,5.03-.2,7.01-.2,8.42,0,14.6,1.18,18.55,3.55,4.01,2.37,6.02,6.22,6.02,11.55,0,8.62-5.53,14.01-16.58,16.19,12.3,1.25,18.45,6.68,18.46,16.28,0,10.32-5.25,16.66-15.74,19.05l-.39,35.92c0,5,.23,8.78.69,11.35.66,4.21,2.07,7.63,4.24,10.26,3.68,4.48,9.08,6.71,16.19,6.71s12.6-2.3,16.28-6.91c2.11-2.63,3.49-6.25,4.14-10.86.46-3.09.69-8.26.69-15.49,0-11.12-.13-21.41-.39-30.89.99.26,2.01.39,3.06.39,1.18,0,2.27-.13,3.26-.39-.33,8.49-.49,14.48-.49,17.96v2.57c0,10.72-.16,18.16-.49,22.3-.59,6.25-1.78,10.95-3.55,14.11-4.54,7.83-12.57,11.74-24.08,11.74-9.8,0-16.94-2.37-21.42-7.11-4.47-4.8-6.71-12.33-6.71-22.6l.1-7.4c.13-4.54.2-8.85.2-12.93,0-5.09-.09-10.99-.27-17.7l-1.95.03c-1.65,0-3.75-.07-6.32-.2-2.57-.13-4.34-.2-5.33-.2-1.12,0-2.86.13-5.23.39Zm8.59-33.85v9.77c0,8.82.2,15.36.59,19.64,2.5.59,4.74.89,6.71.89,5.79,0,10.33-1.38,13.62-4.14,3.36-2.76,5.03-6.55,5.03-11.35,0-10.13-6.35-15.2-19.05-15.2-1.05,0-3.36.13-6.91.39Zm-60.5,2.96h3.06c1.64.07,3.12.1,4.44.1.99,0,2.96-.03,5.92-.1h7.3l-1.68-4.34c-.86-2.24-3.69-8.95-8.49-20.13l-10.56,24.48Zm-18.36,30.59c11.65-25.46,21.81-48.32,30.5-68.59h1.88c8.95,22.38,18.22,44.64,27.79,66.78,4.49.27,8.83,1.47,13.02,3.59-.99,2.04-1.91,4.57-2.76,7.6-3.49-5.07-8.03-7.6-13.62-7.6-3.62,0-6.51,1.12-8.68,3.36-2.11,2.17-3.16,5.13-3.16,8.88,0,5.13,3.32,9.15,9.97,12.04l7.99,3.45c4.6,1.97,7.93,4.28,9.97,6.91,2.04,2.63,3.06,6.05,3.06,10.26,0,6.38-2.14,11.55-6.41,15.49-4.28,3.88-9.97,5.82-17.07,5.82-6.58,0-12.11-1.74-16.58-5.23,1.18-3.49,1.91-6.97,2.17-10.46,3.09,7.83,8.52,11.74,16.28,11.74,4.21,0,7.6-1.28,10.17-3.85,2.63-2.63,3.95-6.18,3.95-10.66,0-3.16-.82-5.69-2.47-7.6-1.45-1.71-3.95-3.32-7.5-4.84l-7.99-3.36c-8.75-3.68-13.13-9.21-13.13-16.58,0-5.59,1.91-10.16,5.72-13.72,2.2-2.02,4.78-3.46,7.72-4.33-2.36-7.11-5.05-14.25-8.07-21.43l-1.68-3.95c-2.7-.13-6.75-.2-12.14-.2-5.46,0-9.54.07-12.24.2-3.09,7.04-6.48,15.82-10.17,26.35-1.12-.33-2.21-.49-3.26-.49-.72,0-1.81.13-3.26.39Zm-3.75-4.14c-5,3.69-12.37,5.53-22.11,5.53-10.92,0-19.41-3.03-25.46-9.08-5.99-6.12-8.98-14.74-8.98-25.86s3.29-19.08,9.87-25.46c6.64-6.38,15.56-9.57,26.75-9.57,7.83,0,14.9,1.58,21.22,4.74-1.05,3.36-1.58,6.51-1.58,9.47-4.54-7.04-11.19-10.56-19.94-10.56-8.23,0-14.64,2.76-19.24,8.29-4.61,5.46-6.91,13.19-6.91,23.19s2.27,17.37,6.81,22.9c4.6,5.46,10.82,8.19,18.65,8.19s14.74-2.76,21.51-8.29l-.59,6.51Z" style="fill: #fff; stroke-width: 0px;"/>
</svg>