<?xml version="1.0" encoding="UTF-8"?>
<svg id="vegetation" xmlns="http://www.w3.org/2000/svg" width="419.19" height="285.74" viewBox="0 0 419.19 285.74">
  <path d="m246.54,223.72c.91-19,1.37-39.76,1.37-62.28v-11.19h2.01c14.71,17.03,31.98,35.54,51.83,55.52.14-4.78.21-7.88.21-9.29,0-17.24-.28-32.19-.84-44.86,1.55.28,2.67.42,3.38.42.77,0,1.86-.14,3.27-.42-.56,16.04-.84,32.55-.84,49.51,0,5.98.07,13.97.21,23.96h-1.37c-5.91-7.39-14.92-17.45-27.02-30.19l-25.54-26.92c-.14,6.19-.21,10.8-.21,13.83,0,10.77.25,24.74.74,41.91-1.27-.35-2.46-.53-3.59-.53-.99,0-2.18.18-3.59.53Zm118.49-104.08h3.27c1.76.07,3.34.11,4.75.11,1.06,0,3.17-.03,6.33-.11h7.81l-1.79-4.64c-.92-2.39-3.94-9.57-9.08-21.53l-11.29,26.18Zm-19.63,32.72c12.46-27.23,23.33-51.69,32.62-73.36h2.01c9.85,24.63,20.05,49.12,30.61,73.47-1.9-.35-3.63-.53-5.17-.53-1.62,0-3.41.18-5.38.53-2.6-7.95-5.59-15.94-8.97-23.96l-1.79-4.22c-2.89-.14-7.21-.21-12.98-.21-5.84,0-10.2.07-13.09.21-3.31,7.53-6.93,16.93-10.87,28.18-1.2-.35-2.36-.53-3.48-.53-.78,0-1.94.14-3.48.42Zm-69.67.11c.91-19,1.37-39.76,1.37-62.28v-11.19h2.01c14.71,17.03,31.98,35.54,51.83,55.52.14-4.78.21-7.88.21-9.29,0-17.24-.28-32.19-.84-44.86,1.55.28,2.67.42,3.38.42.77,0,1.86-.14,3.27-.42-.56,16.04-.84,32.55-.84,49.51,0,5.98.07,13.97.21,23.96h-1.37c-5.91-7.39-14.92-17.45-27.02-30.19l-25.54-26.92c-.14,6.19-.21,10.8-.21,13.83,0,10.77.25,24.74.74,41.91-1.27-.35-2.46-.53-3.59-.53-.99,0-2.18.18-3.59.53Zm-54.78-32.83h3.27c1.76.07,3.34.11,4.75.11,1.06,0,3.17-.03,6.33-.11h7.81l-1.79-4.64c-.92-2.39-3.94-9.57-9.08-21.53l-11.29,26.18Zm-19.63,32.72c12.46-27.23,23.33-51.69,32.62-73.36h2.01c9.85,24.63,20.05,49.12,30.61,73.47-1.9-.35-3.63-.53-5.17-.53-1.62,0-3.41.18-5.38.53-2.6-7.95-5.59-15.94-8.97-23.96l-1.79-4.22c-2.89-.14-7.21-.21-12.98-.21-5.84,0-10.2.07-13.09.21-3.31,7.53-6.93,16.93-10.87,28.18-1.2-.35-2.36-.53-3.48-.53-.78,0-1.94.14-3.48.42Zm-43.59-40.32c2.11.21,4.08.32,5.91.32,13.02,0,19.53-5.1,19.53-15.31,0-8.87-5.81-13.3-17.42-13.3-2.04,0-4.54.18-7.49.53-.35,3.87-.53,8.41-.53,13.62v14.14Zm-9.5,40.64c.7-6.76,1.05-16.47,1.06-29.13,0-19.84-.21-34.23-.63-43.17l5.07.21,5.28-.11c2.88-.14,5.38-.21,7.49-.21,9.01,0,15.62,1.27,19.84,3.8,4.29,2.53,6.44,6.65,6.44,12.35,0,9.22-5.91,14.99-17.73,17.31,13.16,1.34,19.74,7.14,19.74,17.42,0,11.03-5.61,17.82-16.84,20.37l-.42,38.42c0,5.35.25,9.39.74,12.14.7,4.5,2.22,8.16,4.54,10.98,3.94,4.79,9.71,7.18,17.31,7.18s13.47-2.46,17.42-7.39c2.25-2.81,3.73-6.68,4.43-11.61.49-3.31.74-8.83.74-16.57,0-11.89-.14-22.9-.42-33.04,1.06.28,2.15.42,3.27.42,1.27,0,2.43-.14,3.48-.42-.35,9.08-.53,15.48-.53,19.21v2.74c0,11.47-.18,19.42-.53,23.86-.63,6.69-1.9,11.72-3.8,15.09-4.86,8.38-13.44,12.56-25.76,12.56-10.49,0-18.12-2.53-22.91-7.6-4.79-5.14-7.18-13.19-7.18-24.17l.11-7.92c.14-4.86.21-9.46.21-13.83,0-5.44-.1-11.75-.29-18.93l-2.09.03c-1.76,0-4.01-.07-6.76-.21-2.74-.14-4.64-.21-5.7-.21-1.2,0-3.06.14-5.59.42Zm9.18-36.21v10.45c0,9.43.21,16.43.63,21.01,2.67.63,5.06.95,7.18.95,6.19,0,11.05-1.48,14.57-4.43,3.59-2.96,5.38-7,5.38-12.14,0-10.84-6.79-16.25-20.37-16.26-1.13,0-3.59.14-7.39.42Zm-64.7,3.17h3.27c1.76.07,3.34.11,4.75.11,1.06,0,3.17-.03,6.33-.11h7.81l-1.79-4.64c-.92-2.39-3.94-9.57-9.08-21.53l-11.29,26.18Zm-19.63,32.72c12.46-27.23,23.33-51.69,32.62-73.36h2.01c9.58,23.94,19.48,47.75,29.72,71.42,4.8.29,9.44,1.57,13.92,3.84-1.06,2.18-2.04,4.89-2.96,8.13-3.73-5.42-8.59-8.13-14.57-8.13-3.87,0-6.97,1.2-9.29,3.59-2.25,2.32-3.38,5.49-3.38,9.5,0,5.49,3.55,9.78,10.66,12.88l8.55,3.69c4.92,2.11,8.48,4.58,10.66,7.39,2.18,2.82,3.27,6.48,3.27,10.98,0,6.83-2.29,12.35-6.86,16.57-4.58,4.15-10.66,6.23-18.26,6.23-7.04,0-12.95-1.86-17.73-5.59,1.27-3.73,2.04-7.46,2.32-11.19,3.31,8.38,9.11,12.56,17.42,12.56,4.5,0,8.13-1.37,10.87-4.12,2.81-2.81,4.22-6.61,4.22-11.4,0-3.38-.88-6.09-2.64-8.13-1.55-1.83-4.22-3.55-8.02-5.17l-8.55-3.59c-9.36-3.94-14.04-9.85-14.04-17.73,0-5.98,2.04-10.87,6.12-14.67,2.36-2.16,5.11-3.7,8.26-4.63-2.52-7.61-5.4-15.25-8.63-22.92l-1.79-4.22c-2.89-.14-7.21-.21-12.98-.21-5.84,0-10.2.07-13.09.21-3.31,7.53-6.93,16.93-10.87,28.18-1.2-.35-2.36-.53-3.48-.53-.78,0-1.94.14-3.48.42Zm-4.01-4.43c-5.35,3.94-13.23,5.91-23.64,5.91-11.68,0-20.76-3.24-27.23-9.71-6.4-6.54-9.61-15.76-9.61-27.66s3.52-20.41,10.56-27.23c7.11-6.82,16.64-10.24,28.61-10.24,8.37,0,15.94,1.69,22.69,5.07-1.13,3.59-1.69,6.97-1.69,10.13-4.86-7.53-11.96-11.29-21.32-11.29-8.8,0-15.66,2.96-20.58,8.87-4.93,5.84-7.39,14.11-7.39,24.81s2.43,18.58,7.28,24.49c4.92,5.84,11.57,8.76,19.95,8.76s15.76-2.96,23.01-8.87l-.63,6.97Z" style="fill: #fff; stroke-width: 0px;"/>
</svg>