<?xml version="1.0" encoding="UTF-8"?>
<svg id="vegetation" xmlns="http://www.w3.org/2000/svg" width="419.19" height="140.3" viewBox="0 0 419.19 140.3">
  <g>
    <path d="m53.24,92.24c-6.85,0-12.2-1.92-16.08-5.79-3.87-3.87-5.81-9.29-5.82-16.28,0-6.84,1.82-12.32,5.49-16.44,3.66-4.11,8.63-6.17,14.92-6.18,4.43,0,8.99,1.07,13.69,3.2l2.78-13.38c-5.32-2.07-10.85-3.1-16.59-3.1-7.05,0-13.27,1.55-18.66,4.63-5.39,3.08-9.55,7.45-12.49,13.12-2.93,5.67-4.4,12.21-4.39,19.6,0,10.85,3.13,19.25,9.35,25.19,6.22,5.94,14.87,8.91,25.93,8.9,6.43,0,11.85-.84,16.9-2.78l-2.29-12.75c-4.22,1.46-8.26,2.05-12.75,2.05" style="fill: #fff; stroke-width: 0px;"/>
    <polygon points="162.07 35.45 147.04 35.46 147.08 104.52 187 104.49 187 91.43 162.1 91.44 162.07 35.45" style="fill: #fff; stroke-width: 0px;"/>
    <path d="m334.59,67.54c-2.62-1.44-5.92-2.92-9.91-4.43l-4.24-1.65c-2.75-1.17-4.75-2.27-5.99-3.3-1.24-1.03-1.86-2.48-1.86-4.34,0-2.13.89-3.83,2.68-5.11,1.79-1.28,4.3-1.91,7.54-1.92,2.61,0,5.38.41,8.31,1.24,2.92.82,5.66,1.96,8.21,3.4l2.26-13.63c-6.33-2.47-12.53-3.7-18.58-3.7-7.99,0-14.22,1.9-18.68,5.69-4.48,3.78-6.7,8.98-6.7,15.59,0,4.06.85,7.36,2.53,9.91,1.69,2.54,3.7,4.52,6.04,5.94,2.34,1.4,5.44,2.9,9.29,4.48.55.2,5.06,2.06,5.06,2.06,2.96,1.16,5.12,2.25,6.5,3.24,1.37,1,2.07,2.43,2.07,4.29,0,2.27-1.03,4.1-3.09,5.48-2.07,1.38-4.75,2.07-8.05,2.07-2.89,0-6.04-.53-9.45-1.6-3.41-1.06-6.56-2.5-9.66-4.42l-1.23,13.84c2.61,1.51,5.63,2.66,9.24,3.55,3.62.89,7.42,1.33,11.41,1.33,8.12,0,14.45-1.87,18.99-5.59,4.54-3.72,6.8-8.92,6.8-15.59,0-4.34-.93-7.87-2.79-10.58-1.86-2.72-4.1-4.8-6.71-6.24" style="fill: #fff; stroke-width: 0px;"/>
    <polygon points="350.36 108.97 350.36 108.97 401.36 98.73 401.34 84.3 350.35 94.55 350.36 108.97" style="fill: #fff; stroke-width: 0px;"/>
    <path d="m375.81,34.06c-14.07,0-25.49,11.46-25.48,25.52,0,14.06,11.46,25.5,25.52,25.48,14.06,0,25.5-11.46,25.48-25.52,0-14.07-11.46-25.49-25.52-25.48m.02,37.09c-6.39,0-11.59-5.19-11.6-11.58,0-6.39,5.19-11.59,11.58-11.6,6.39,0,11.59,5.19,11.6,11.58,0,6.39-5.19,11.59-11.58,11.6" style="fill: #fff; stroke-width: 0px;"/>
    <path d="m285.25,41.07c-4.08-3.66-9.68-5.56-16.8-5.69h-23.54s.05,69.07.05,69.07h15.04s-.02-24.69-.02-24.69h6.74c4.77,0,9.04-.98,12.81-2.91,3.77-1.94,6.69-4.69,8.76-8.25,2.07-3.56,3.1-7.66,3.1-12.29,0-6.5-2.05-11.58-6.13-15.24m-11.23,23.54c-1.9,1.94-4.55,2.91-7.93,2.91h-6.11s-.02-19.9-.02-19.9h6.85c6.7,0,10.07,3.03,10.07,9.12,0,3.31-.95,5.94-2.85,7.88" style="fill: #fff; stroke-width: 0px;"/>
    <polygon points="221.74 35.41 208.01 62.69 194.26 35.43 177.36 35.44 200.51 75.76 200.53 104.48 208.04 104.48 215.57 104.47 215.54 75.75 238.64 35.4 221.74 35.41" style="fill: #fff; stroke-width: 0px;"/>
    <path d="m116.66,35.49h-9.02s-9.02.01-9.02.01l-25.25,69.07h15.35s5.28-15.77,5.28-15.77l27.37-.02,5.3,15.76h15.34s-25.35-69.05-25.35-69.05Zm-18.32,40.45l9.31-26.45,9.35,26.44h-18.67Z" style="fill: #fff; stroke-width: 0px;"/>
  </g>
  <text transform="translate(349.59 132.82)" style="fill: #fff; font-family: ProximaNova-Regular, &apos;Proxima Nova&apos;; font-size: 23.02px; letter-spacing: .17em;"><tspan x="0" y="0">SUN</tspan></text>
</svg>