<?xml version="1.0" encoding="UTF-8"?>
<svg id="vegetation" xmlns="http://www.w3.org/2000/svg" width="419.19" height="140.3" viewBox="0 0 419.19 140.3">
  <path d="m337.68,6.26c8.62-1.39,4.73,9.3,3.32,15.23-1.37,5.74-27.16,61.06-32.39,69.53,2.5-1.64,4.17-2.92,5.98-5.2,3.18-4,3.79-7.69,6.41-13.81,5.01-11.72,14.7-21.13,26.23-26.03,4.02-1.71,8.32-.88,10.17,2.61,2.75,5.14-1.52,11.41-4.53,14.7-3.89,4.2-10.61,8.41-16.86,9.77-1.94.41-4.22-.51-5.9.22-1.82.78-6.23,14.57-5.05,19.21,2.06,8.12,10.34-1.95,11.75-4.09,6.62-10.13,11.77-27.39,29.83-23.28,3.33.75,6.8,2.35,8.31,4.79,4.07,6.53.98,14.11-5.47,16.02.16-1.15.33-2.45.59-4.03,1.62-10.89-9.02-15.62-16.63-9.58-20.96,16.6,11.02,39.17,26.3,13.98,2.43-4.04,5.29-12.24,2.41-17.93-1.67-3.28-6.46-6.31-9.2-8.63-7.26-6.14-12.8-18.1-4.26-27.86,1.99-2.29,6.53-5.07,10.01-5.51,4.48-.59,11.22,1.61,10.52,5.77-.15.8-2.35,3.38-2.83,4.4-2.71-.97-8.71-4.2-12.9-1.35-11.29,7.63,3.6,15.63,9.33,24.29,18.91,28.52-28.5,66.84-41.6,30.43-4.36,3.7-8.08,11.68-14.72,12.54-15.71,2.01-5.88-19.81-16.28-6.87-2.6,3.2-9.13,10.89-13.08,4.05-.39-.68-.61-2.09-.79-2.73-3.43,1.98-6.24,4.11-9.58,5.97-2.37,1.31-14.17,8.19-17.6,5.69-5.57-4.05,9.94-6.65,10.5-6.84,6.45-2.36,15.13-6.77,19.16-11.94,7.33-9.45,30.82-58.12,33.23-69.31.93-4.32,2.5-7.17,3.47-10.29m4.45,47.4c-1.17.2-13.12,12.6-3.8,10.74,6.18-1.24,15.8-11.44,10.74-13.3-2.03-.75-5.85,2.36-6.94,2.56Zm-304.9-.95c-.93,11.33,5.63,21.7,18.97,26.83,5.88,2.26,12.44,4.77,19.13,6.58-1.38,3.82-3.49,6.81-4.24,11.33,4.6-2.4,4.09-5.52,6.82-6.46,3.92-1.35,5.1-4.89,6.51-4.55,2.89.68,6.27-.07,11.23-1.19,11.57-2.61,22.56-10.13,27.45-20.39-2.29-.63-9.05-1.04-9.82.29-2.57,4.46-16.14,15.76-25.77,14.28,4.86-8.93,22.96-42.28,29.06-58.95-2.02-.31-6.38-.68-8.44.36-2.16,1.06-29.29,58.22-29.68,58.32-3.65.91-10.71-2.72-13.28-3.97-6.37-3.13-16.15-10.11-16.07-21.47.27-39.77,72.77-50.57,104.93-30.37,25.47,16,13.13,37.05,7.82,44.41-17,23.47-47.97,33.34-85.13,34.85-16.68.69-29.74-2.39-44.49-4.25,1.85,1.26,5.08,3.94,7.27,4.42,7.47,1.6,40.17,6.29,77.82-.72,28.17-5.25,35.64-12.07,44.42-18.55,55.41-40.92-4.21-79.85-54.09-75.36-46.5,4.19-68.86,25.69-70.41,44.56Zm165.3-12.51c9.22-1.51,10.46,8.75,3.67,10.04-8.97,1.67-10.71-8.9-3.67-10.04Zm45.2,2.93c6.53,2.85,17.76,1.24,23.78,3.08,12.52,3.83,22.47,15.55,16.79,30.31-4.66,12.14-13.92,14.04-19.73,15.52-1.69.42-3.57.69-5.38.71,4.15-8.3,8.62-16.72,12.47-24.79,1.38-2.91,1.97-4.7,2.96-8-8.22-.29-8.19.43-10.92,5.92-1.51,3.02-13.76,27.94-14.82,28.31-1.91.63-9.11,1.03-8.66-.37,1.33-4.09,18.69-34.05,14.47-38.16-5.08-4.97-14.02,4.89-16.68,6.62-1.83,2.62-1.51-.05-1.78-.06-.14-2.92.99-5.49-.72-6.78-5.42-4.06-12.22,4.89-15.86,6.65-2.13-27.03-32.8,20.99-35.19,23.54-4.97,5.26,2.87-10.48,4.02-12.92,1.78-3.85,6.55-13.09,8.48-17.31,1.13-2.45-7.37-2.18-8.05-.91-8.62,16.23-16.28,28.19-44.76,42.52-2.41,1.22-2.22,4.28.08,3.74,8-1.88,28.3-17.51,29.43-18.04,3.57-1.66-2.1,6.38-2.34,8.32-.34,2.55.26,4.92,1.57,5.91,2.31,1.7,5.28.64,7.16-.65,3.56-2.45,5.23-6.64,7.94-10.08,5.67-7.22,12.13-14.12,17.71-21.45,2.33-.27.98,2.44.81,2.28-3.93,9.84-13.38,29.26-13.56,30.6,2.45.08,6.29.7,8.04-.17,3.46-1.76,10.37-22.62,14.33-26.97,2.33-2.56,5.77-4.5,8.23-5.57,1.19-.54,4.07-1.66,1.93,2.1-2.14,3.75-10,18.57-14.22,30.35,2.75.09,5.7.2,8.47.29,2.22-4,4.17-8.21,6.24-12.39.7-1.45,2.61-5.02,3.29-6.33,3.97-7.93,3.98-7.33,10.74-12.09,11.65-8.24-7.49,21.74-8,24.49-2.44,13.18,19.4-.93,13.42,11.96-2.63,5.63-5.57,10.29-8.14,15.7-2.42,5.06-5.07,9.26-6.78,15.08,4.03-1.41,3.14-3.58,5.99-5.2,5.91-3.4,6.28-2.88,9.26-9.59,1.67-3.8,7.99-19.51,10.56-21.25,3.44-2.36,10.39-1.21,14.81-2.19,12.16-2.7,23.42-10.48,24.53-25.26,0,0,1.52-12.84-13.48-22.99-7.84-5.3-16.74-8.05-40.13-7.71-6.39.09-.83,2.11,1.67,3.21" style="fill: #fff; stroke-width: 0px;"/>
</svg>