<?xml version="1.0" encoding="UTF-8"?>
<svg id="vegetation" xmlns="http://www.w3.org/2000/svg" width="419.19" height="285.74" viewBox="0 0 419.19 285.74">
  <path d="m344.64,69.33c9.49-1.53,5.21,10.23,3.66,16.77-1.51,6.31-29.9,67.21-35.66,76.54,2.75-1.81,4.59-3.22,6.59-5.72,3.5-4.4,4.17-8.47,7.06-15.2,5.52-12.9,16.18-23.26,28.87-28.65,4.42-1.88,9.16-.97,11.2,2.87,3.03,5.66-1.67,12.56-4.99,16.18-4.28,4.62-11.68,9.26-18.56,10.75-2.14.45-4.64-.56-6.49.25-2,.86-6.86,16.03-5.56,21.15,2.27,8.94,11.38-2.15,12.93-4.51,7.28-11.15,12.95-30.15,32.84-25.62,3.67.82,7.48,2.59,9.15,5.28,4.48,7.19,1.08,15.53-6.02,17.64.18-1.26.37-2.7.65-4.44,1.78-11.99-9.93-17.19-18.31-10.55-23.07,18.27,12.13,43.11,28.95,15.39,2.68-4.45,5.83-13.48,2.66-19.74-1.84-3.62-7.11-6.95-10.12-9.5-7.99-6.75-14.09-19.93-4.69-30.67,2.19-2.52,7.18-5.58,11.02-6.06,4.93-.65,12.35,1.78,11.58,6.35-.16.88-2.59,3.72-3.12,4.85-2.99-1.07-9.59-4.63-14.2-1.49-12.42,8.4,3.96,17.21,10.27,26.74,20.81,31.39-31.37,73.57-45.8,33.49-4.8,4.08-8.89,12.86-16.2,13.81-17.29,2.22-6.48-21.8-17.92-7.56-2.86,3.52-10.05,11.99-14.4,4.46-.43-.75-.67-2.3-.87-3.01-3.78,2.18-6.87,4.52-10.55,6.57-2.61,1.44-15.59,9.02-19.38,6.26-6.13-4.46,10.94-7.32,11.56-7.53,7.1-2.6,16.65-7.46,21.09-13.14,8.07-10.4,33.93-63.98,36.58-76.29,1.02-4.75,2.76-7.89,3.82-11.33m4.9,52.18c-1.29.22-14.45,13.87-4.19,11.82,6.8-1.36,17.39-12.6,11.82-14.64-2.24-.82-6.44,2.6-7.64,2.82Zm-335.62-1.05c-1.02,12.47,6.2,23.89,20.88,29.53,6.48,2.49,13.69,5.26,21.06,7.25-1.52,4.21-3.84,7.5-4.67,12.47,5.07-2.64,4.5-6.08,7.51-7.11,4.31-1.49,5.61-5.38,7.17-5.01,3.18.75,6.9-.07,12.36-1.31,12.73-2.87,24.83-11.15,30.21-22.44-2.52-.69-9.96-1.15-10.81.32-2.83,4.91-17.77,17.35-28.36,15.72,5.35-9.83,25.27-46.54,31.99-64.89-2.23-.34-7.02-.75-9.29.39-2.37,1.17-32.24,64.09-32.67,64.19-4.02,1-11.78-2.99-14.62-4.38-7.01-3.45-17.78-11.13-17.69-23.63.3-43.78,80.1-55.66,115.5-33.43,28.04,17.61,14.45,40.78,8.61,48.88-18.71,25.84-52.81,36.7-93.71,38.36-18.36.76-32.74-2.63-48.97-4.68,2.04,1.39,5.59,4.34,8,4.87,8.23,1.76,44.22,6.92,85.66-.79,31.01-5.77,39.24-13.28,48.9-20.42,61-45.05-4.63-87.9-59.54-82.95-51.18,4.61-75.8,28.28-77.5,49.05Zm181.95-13.77c10.15-1.66,11.52,9.63,4.04,11.05-9.87,1.84-11.78-9.8-4.04-11.05Zm49.76,3.22c7.18,3.13,19.55,1.37,26.17,3.39,13.78,4.21,24.73,17.12,18.48,33.36-5.13,13.36-15.33,15.45-21.72,17.09-1.86.46-3.92.76-5.92.79,4.56-9.14,9.48-18.4,13.73-27.28,1.52-3.2,2.17-5.18,3.25-8.81-9.05-.31-9.02.47-12.02,6.52-1.66,3.32-15.15,30.75-16.31,31.16-2.1.7-10.03,1.13-9.53-.4,1.46-4.5,20.57-37.48,15.92-42.01-5.59-5.47-15.44,5.38-18.36,7.29-2.02,2.88-1.66-.06-1.96-.07-.15-3.21,1.09-6.05-.79-7.46-5.97-4.47-13.45,5.39-17.45,7.32-2.35-29.76-36.1,23.11-38.73,25.91-5.47,5.79,3.16-11.54,4.43-14.22,1.95-4.24,7.21-14.41,9.34-19.06,1.24-2.7-8.11-2.4-8.86-1-9.48,17.87-17.92,31.03-49.27,46.81-2.65,1.34-2.44,4.71.09,4.11,8.81-2.07,31.15-19.27,32.4-19.85,3.93-1.82-2.31,7.03-2.58,9.15-.38,2.81.29,5.42,1.73,6.5,2.54,1.87,5.81.7,7.89-.71,3.92-2.7,5.76-7.31,8.74-11.1,6.24-7.95,13.35-15.54,19.5-23.61,2.56-.3,1.08,2.69.9,2.51-4.32,10.83-14.73,32.21-14.93,33.68,2.7.09,6.92.77,8.85-.19,3.81-1.94,11.42-24.9,15.78-29.69,2.56-2.82,6.36-4.95,9.06-6.13,1.31-.59,4.48-1.82,2.12,2.31-2.36,4.13-11.01,20.44-15.66,33.41,3.03.1,6.28.22,9.32.32,2.44-4.4,4.59-9.04,6.87-13.64.78-1.6,2.87-5.53,3.62-6.97,4.37-8.73,4.38-8.07,11.83-13.31,12.82-9.07-8.24,23.93-8.8,26.95-2.68,14.5,21.35-1.02,14.78,13.16-2.89,6.2-6.13,11.33-8.96,17.29-2.67,5.58-5.58,10.2-7.46,16.6,4.43-1.55,3.46-3.94,6.59-5.72,6.51-3.74,6.92-3.17,10.19-10.55,1.84-4.18,8.8-21.47,11.63-23.39,3.79-2.59,11.44-1.33,16.3-2.41,13.38-2.97,25.78-11.54,27.01-27.81,0,0,1.68-14.13-14.84-25.3-8.63-5.84-18.42-8.86-44.17-8.48-7.04.1-.91,2.33,1.84,3.54" style="fill: #fff; stroke-width: 0px;"/>
</svg>