<?xml version="1.0" encoding="UTF-8"?>
<svg id="vegetation" xmlns="http://www.w3.org/2000/svg" width="419.19" height="140.3" viewBox="0 0 419.19 140.3">
  <path d="m41.29,79.65h-11.4s0,27.09,0,27.09H11.19V30.81h30.1c16.86,0,25.9,11.94,25.9,24.42,0,12.48-9.05,24.42-25.9,24.42m-.85-32.11h-10.55s0,15.37,0,15.37h10.55c5.11,0,8.11-3.73,8.11-7.69,0-3.94-3-7.69-8.11-7.69" style="fill: #fff; stroke-width: 0px;"/>
  <path d="m86.29,83.7c0,4.69,3.61,8.96,10.11,8.96,6.1,0,8.75-1.71,11.85-4.79l10.46,10.46c-5.86,5.87-11.61,9.06-22.31,9.06-12.69,0-27.3-4.58-27.3-29.34,0-18.77,10.68-29.32,25.69-29.32,16.66,0,25.81,12.15,25.81,27.19v7.77h-34.32Zm16.1-16.11c-1.1-2.46-3.43-4.46-7.6-4.46-4.15,0-6.5,2-7.55,4.46-.75,1.5-.96,3.1-.96,4.5h17.06c0-1.39-.21-3-.96-4.5" style="fill: #fff; stroke-width: 0px;"/>
  <path d="m157.61,106.75v-4.71c-3.5,3.52-7.25,5.35-13.21,5.35-5.54,0-10.68-1.92-13.98-5.25-5.67-5.65-5.35-15.65-5.35-24.11,0-8.4-.31-18.44,5.35-24.09,3.29-3.31,8.3-5.21,13.86-5.21,5.65,0,9.59,1.6,12.79,4.79v-22.73h17.5v75.94h-16.96Zm-7.79-42.23c-6.5,0-7.25,5.23-7.25,13.53,0,8.35.75,13.56,7.25,13.56,6.5,0,7.25-5.21,7.25-13.56,0-8.3-.75-13.53-7.25-13.53" style="fill: #fff; stroke-width: 0px;"/>
  <path d="m185.77,43.5v-13.32h17.5v13.32h-17.5Zm0,63.24v-55.15h17.5v55.15h-17.5Z" style="fill: #fff; stroke-width: 0px;"/>
  <path d="m240.07,107.39c-7.46,0-14.29-2.79-19.4-7.9-7.15-7.15-7.15-14.61-7.15-30.71,0-16.11,0-23.58,7.15-30.73,5.11-5.11,11.94-7.88,19.4-7.88,13.65,0,23.79,8.32,26.36,22.61h-8.35c-2-9.29-8.51-15.36-18.01-15.36-5,0-9.81,1.92-13.11,5.32-4.79,4.92-5.35,10.15-5.35,26.04,0,15.88.56,21.11,5.35,26.01,3.29,3.43,8.1,5.35,13.11,5.35,9.5,0,16.21-6.1,18.25-15.36h8.1c-2.46,14.28-12.81,22.61-26.36,22.61" style="fill: #fff; stroke-width: 0px;"/>
  <path d="m308.53,106.75v-5c-4.25,4.25-8.1,5.65-15.15,5.65s-11.5-1.39-14.82-4.81c-2.54-2.54-3.94-6.5-3.94-10.67,0-9.17,6.4-15.13,18.14-15.13h15.76s0-5.02,0-5.02c0-7.69-3.85-11.52-13.42-11.52-6.73,0-10.15,1.59-13.23,5.96l-5.21-4.79c4.65-6.08,10-7.77,18.55-7.77,14.07,0,21,6.07,21,17.5v35.61h-7.69Zm0-24.21h-14.71c-7.9,0-11.75,3.21-11.75,9.27,0,6.08,3.75,8.96,12.06,8.96,4.5,0,8.44-.33,11.75-3.52,1.8-1.71,2.65-4.71,2.65-9.06v-5.65Z" style="fill: #fff; stroke-width: 0px;"/>
  <path d="m360.04,64.29c-2.89-2.88-5.04-3.85-9.08-3.85-7.67,0-12.57,6.1-12.57,14.1v32.21h-7.7v-52.47h7.7v6.38c2.86-4.38,8.65-7.02,14.71-7.02,5,0,8.84,1.15,12.58,4.9l-5.65,5.75Z" style="fill: #fff; stroke-width: 0px;"/>
  <path d="m372.6,82.54c0,11.5,5.44,18.13,15.46,18.13,6.08,0,9.59-1.81,13.79-5.98l5.21,4.6c-5.35,5.32-10.25,8.11-19.21,8.11-13.86,0-22.9-8.33-22.9-26.9,0-16.96,8.19-26.86,21.51-26.86,13.54,0,21.54,9.8,21.54,25.38v3.52h-35.4Zm26.15-14.5c-2.04-4.79-6.74-7.9-12.29-7.9-5.51,0-10.21,3.1-12.25,7.9-1.17,2.88-1.39,4.46-1.6,8.75h27.75c-.24-4.29-.45-5.87-1.6-8.75" style="fill: #fff; stroke-width: 0px;"/>
</svg>