<?xml version="1.0" encoding="utf-8"?>
<!-- Generator: Adobe Illustrator 27.9.0, SVG Export Plug-In . SVG Version: 6.00 Build 0)  -->
<svg version="1.1" id="vegetation" xmlns="http://www.w3.org/2000/svg" xmlns:xlink="http://www.w3.org/1999/xlink" x="0px" y="0px"
	 width="419.2px" height="140.3px" viewBox="0 0 419.2 140.3" style="enable-background:new 0 0 419.2 140.3;" xml:space="preserve"
	>
<style type="text/css">
	.st0{fill-rule:evenodd;clip-rule:evenodd;fill:#FFFFFF;}
	.st1{fill:#FFFFFF;}
</style>
<g>
	<path class="st0" d="M257.1,31.8c-1.9-1.5-1.2-5.7,1.6-9.3c2.8-3.6,6.7-5.4,8.6-3.8c1.9,1.5,1.2,5.7-1.6,9.3
		C262.9,31.6,259,33.3,257.1,31.8L257.1,31.8z M168.1,54.2c-1.9-1.5-1.2-5.7,1.6-9.3c2.8-3.6,6.7-5.4,8.6-3.8s1.2,5.7-1.6,9.3
		C173.9,53.9,170,55.7,168.1,54.2z M327.8,80.7c-0.1,1.4-2,1.1-2.8,1.3c-3.4,0.5-7,0.6-10.5,1c-32.4,3.5-65.2,7-93.2,15.1
		c-30.4,8.7-53.7,23-77.1,38.9c-0.6,0.4-1.5,1.1-2.3,1.5c-0.5,0.3-1.5,1.6-2.3,0.5c-0.5-1,1-1.6,1.5-2c2.1-1.5,4.5-3,6.8-4.5
		c21.1-14.1,43.8-27.4,71.3-35.4c31.6-9.2,67.7-13.1,105.2-16.6C325,80.4,327.3,79.5,327.8,80.7L327.8,80.7z M285.1,46.5
		c-3,2.9-4.9,7.8-6.3,12.3c-1.3,4.5-3,14.5,0.8,16.6c2.8,1.6,6.9-1.3,9-3.3c2.4-2.1,13.8-15.3,14.8-20.3c0.5-2.5,1.3-8.3,1.3-8.3
		C297.2,41.6,289.3,42.4,285.1,46.5L285.1,46.5z M226.6,62.8c4.1-2.3,8.7-5.5,10.3-9.8c0.6-1.7,1.2-6.3-0.2-7.8
		c-0.8-0.8-3.1-0.9-4.8-0.5c-4.7,1.1-8.7,5.9-11.8,9.8c-3.5,4.4-6.3,8.9-8.8,13.1C216.8,67.1,222.2,65.3,226.6,62.8L226.6,62.8z
		 M164.6,22.4c-0.8-0.8-1.2-2-1.8-3c-3.1-5.9-8.6-11.4-18.6-10.8c-2.1,0.1-4.1,0.6-6,1.5c-7,3.3-14.5,14.3-10.3,25.6
		c1,2.7,2.7,4.6,4.3,6.5c7.6,9.7,16.6,18.5,22.6,30.1c2.2,4.2,4.7,9.6,4.8,16.3c0.2,21-15.1,37-34.9,38.4
		c-14.3,1-25.7-5.2-29.4-14.8c-5.4-14,3.5-27.5,15.6-30.1c2.1-0.5,4-0.8,7.3-1c-0.2,1.1-1.3,1.6-2,2.3c-3.4,3.3-6.8,7.2-9,12.3
		c-0.9,2-1.9,4.4-1.8,6.5c0.3,5.5,6.3,11.5,10.8,13.6c10.9,5,22.8-0.2,28.1-7.5c2-2.8,3.8-7.4,3.8-11.8c-0.1-5.7-3.3-11.8-6.5-16.6
		c-3.1-4.6-6.8-8.7-10.3-12.8c-7-8.3-15.4-18-16.6-29.6c-2-20,12-34.1,28.1-36.9c9.9-1.7,23.6,1.3,25.6,8.5
		C169.7,14,166.7,18.4,164.6,22.4L164.6,22.4z M223.1,67.4c2.1,2.3,5.6,5.6,9.5,8.3c5.2,3.6,12.9,7.8,18.6,3
		c-0.6-12.8,3.1-23.5,4.3-35.4c6-2.1,10.8-8.2,11.8-8.3c-1.5,9.9-4.2,22.4-6,33.9c-0.5,3.3-1.4,9.9,1,11c2.5,1.2,4.9-1.6,6.3-3
		c-3-12,4-22.5,10-28.6c8.5-8.5,22-11.7,36.7-11.3c-1.4,5.7-5.5,30.7-4.8,36.7c3.8,1.1,6.9-1.3,9.3-3.3c2.1-1.7,3.7-4.2,5.5-5.8
		c0.7,3.2-1.4,5.7-3.8,7.9c-2.7,2.5-7.4,5.3-11,6.2c-4.7,1.1-8.3,0-9.5-3.3c-0.3-6.3,1-11,1.5-16.6c-1,0.7-1.4,2.1-2,3.3
		c-3.8,7.5-11.2,17.9-20.3,19.8c-4.4,0.9-9.2-0.4-10.8-3.8c-3.7,3-8.1,6.9-13.8,5.5c-0.2-0.1-1.7-0.6-2-0.8c-0.5-0.3-1-1.5-1.3-1.5
		c-0.6,0-4.8,3.6-5.5,4c-1.8,1-4.5,2.4-7,2.5c-6.4,0.3-11.9-4.1-16.1-7.3c-4.6-3.6-8.1-7-12.6-10.5c-1,6.8-1.7,14.1-2.8,20.8
		c-2.8,0.7-6,1.1-8.8,1.8c-2.7,2.8-6.8,7.5-11.8,7.5c-1.6,0-3.2-0.6-4.5-1.5c-3.3,3.1-8.3,9-15.3,7.8c-7.6-1.3-4.4-15.7-3.3-23.9
		c0.9-6,2-11.8,2.5-16.8c6.8-2.3,11.7-9.3,11.8-8.3c-1.4,5.6-6.6,34.3-6.3,40.4c0.1,1.7,0.7,4,1.8,4.5c3.2,1.4,5.9-3,7.8-4.5
		c-3.8-6.1-0.6-17.1,0.5-24.9c2.5-17.8,5.5-37.4,7.5-55c0,0,3.5-2.5,4.5-3.1c2.8-1.8,5.2-4.7,6.3-5.9c-3,21.2-10.8,73-11,76.8
		c-0.3,4.3-0.4,10,2,10.5c2.8,0.6,3.7-2.3,5.5-3.3c-0.6-0.9-0.2-2.3,0-3.3c0.5-3.2,1.5-6.8,2-10.5c2.1-14.2,2.2-31.2,7-43.2
		c6.4-16,19.3-25.3,41.9-25.1c-0.3,1.9-1.4,1-3.5,1.3c-11.3,1.5-22.5,5-26.9,14.1c-2,4.2-5.7,30.1-6.5,35.7
		c0,0.2,5.9-10.6,11.3-15.3c4.6-4.1,11.8-8.8,19.3-7.8c4.7,0.7,6.8,5.5,5.3,11C244.8,60,232.4,64.4,223.1,67.4L223.1,67.4z"/>
	<g>
		<path class="st1" d="M234.7,133.6c2.1,1.3,5.2,2.4,8.4,2.4c4.8,0,7.6-2.5,7.6-6.2c0-3.4-1.9-5.4-6.9-7.2c-6-2.1-9.6-5.2-9.6-10.3
			c0-5.7,4.7-9.9,11.8-9.9c3.7,0,6.4,0.9,8.1,1.8l-1.3,3.8c-1.2-0.6-3.6-1.7-6.9-1.7c-5,0-6.9,3-6.9,5.5c0,3.4,2.2,5.1,7.2,7
			c6.2,2.4,9.3,5.4,9.3,10.7c0,5.6-4.2,10.5-12.8,10.5c-3.5,0-7.4-1-9.3-2.3L234.7,133.6z"/>
		<path class="st1" d="M267.9,125.2h0.1c0.6-0.9,1.6-2.1,2.3-3l7.7-9h5.7l-10.1,10.8l11.5,15.4h-5.8l-9-12.5l-2.4,2.7v9.8h-4.7V101
			h4.7V125.2z"/>
		<path class="st1" d="M296.2,105.8c0.1,1.6-1.1,2.9-3,2.9c-1.7,0-2.9-1.3-2.9-2.9c0-1.7,1.2-3,3-3
			C295,102.9,296.2,104.2,296.2,105.8z M290.9,139.4v-26.2h4.8v26.2H290.9z"/>
		<path class="st1" d="M304.9,120.3c0-2.7-0.1-4.9-0.2-7.1h4.2l0.3,4.3h0.1c1.3-2.5,4.3-4.9,8.7-4.9c3.6,0,9.2,2.2,9.2,11.1v15.6
			h-4.8v-15.1c0-4.2-1.6-7.7-6.1-7.7c-3.1,0-5.6,2.2-6.4,4.9c-0.2,0.6-0.3,1.4-0.3,2.2v15.7h-4.8V120.3z"/>
	</g>
</g>
</svg>
