<?xml version="1.0" encoding="UTF-8"?>
<svg id="vegetation" xmlns="http://www.w3.org/2000/svg" width="419.19" height="140.3" viewBox="0 0 419.19 140.3">
  <g>
    <path d="m119.09,107.26s-4.15,5.15-11.69,5.15c-12.94,0-23.63-26.39-26.14-39.08-6.16,11.56-12.19,26.64-14.2,40.72-5.65,0-12.56-4.78-12.56-12.94,0-15.83,18.72-40.09,26.77-63.84-5.28,1.63-11.81,5.53-11.81,5.53,0,0-.25-.63-.25-2.01,0-10.43,12.94-16.84,38.58-16.84,21.86,0,31.04,7.79,31.04,19.48,0,15.58-17.72,24.38-40.46,27.77,2.26,9.17,8.55,27.77,20.73,36.06Zm-35.56-38.7c24.76-2.64,39.08-16.84,39.08-30.28,0-5.91-3.27-8.55-10.81-8.55-7.04,0-12.57,2.64-12.57,2.64-4.65,12.69-10.05,24.13-15.71,36.19Z" style="fill: #fff; stroke-width: 0px;"/>
    <path d="m131.33,92.07c0,3.14,1.76,4.27,3.89,4.27,8.3,0,16.34-9.05,21.24-16.08,0,0,1.51,1.63,1.51,4.52,0,9.93-15.21,17.59-30.79,17.59-8.29,0-12.56-4.65-12.56-11.43,0-20.23,27.9-42.1,46.87-42.1,4.78,0,7.41,2.64,7.41,6.91,0,11.18-14.58,20.36-32.92,21.99-2.76,5.28-4.65,10.68-4.65,14.32Zm31.29-35.18c-.13-1.01-.75-2.14-2.39-2.14-6.53,0-14.95,7.92-20.61,16.96,10.93-1.13,22.62-7.29,22.99-14.83Z" style="fill: #fff; stroke-width: 0px;"/>
    <path d="m241.16,106.96c0-4.4,1.26-6.79,1.26-6.79,0,0-9.55,9.68-21.86,9.68-13.2,0-21.24-9.42-21.24-21.74,0-32.92,38.58-62.83,69.49-62.83,9.93,0,13.95,3.52,13.95,7.92,0,6.16-6.16,7.41-6.16,7.41,0,0-2.01-7.79-10.68-7.79-21.99,0-47.75,37.57-47.75,60.69,0,5.4,3.02,8.17,7.16,8.17,14.07,0,29.03-22.87,29.03-33.55,5.03-.25,12.19,1.38,12.19,9.93,0,11.43-13.57,20.36-13.57,40.34-7.54,0-11.81-4.15-11.81-11.43Z" style="fill: #fff; stroke-width: 0px;"/>
    <path d="m285.71,91.5c0,3.14,1.76,4.27,3.89,4.27,8.3,0,16.34-9.05,21.24-16.08,0,0,1.51,1.63,1.51,4.52,0,9.93-15.21,17.59-30.79,17.59-8.29,0-12.56-4.65-12.56-11.43,0-20.23,27.9-42.1,46.87-42.1,4.78,0,7.41,2.64,7.41,6.91,0,11.18-14.58,20.36-32.92,21.99-2.76,5.28-4.65,10.68-4.65,14.32Zm31.29-35.18c-.13-1.01-.75-2.14-2.39-2.14-6.53,0-14.95,7.92-20.61,16.96,10.93-1.13,22.62-7.29,22.99-14.83Z" style="fill: #fff; stroke-width: 0px;"/>
    <path d="m349.32,94.48c0-12.44,11.43-24.38,11.43-31.04,0-.88-.63-1.76-1.63-1.76-6.66,0-28.02,20.86-35.94,41.47-4.9,0-8.54-4.4-8.54-10.3,0-11.18,15.46-25.26,20.36-43.86,4.02,0,10.56.5,10.56,8.42,0,6.03-6.03,13.45-6.03,13.45,10.43-11.44,19.1-20.23,30.16-20.23,4.4,0,7.16,3.27,7.16,8.92,0,14.2-13.45,26.39-17.09,48.38-5.65,0-10.43-5.15-10.43-13.45Z" style="fill: #fff; stroke-width: 0px;"/>
  </g>
  <path d="m166.31,73.24c6.79-2.92,20.2,1.24,29.51.5.83,1.68,1.43,4.27-1.45,5.51-5.5,2.37-19.58-2.78-30.64.19-.83-1.93-.22-5,2.58-6.21Z" style="fill: #fff; stroke-width: 0px;"/>
</svg>