<?xml version="1.0" encoding="UTF-8"?>
<svg id="vegetation" xmlns="http://www.w3.org/2000/svg" width="419.19" height="285.74" viewBox="0 0 419.19 285.74">
  <g>
    <path d="m107.4,180.7s-4.72,5.87-13.32,5.87c-14.75,0-26.92-30.07-29.78-44.53-7.02,13.17-13.89,30.36-16.18,46.39-6.44,0-14.32-5.44-14.32-14.75,0-18.04,21.33-45.68,30.5-72.74-6.01,1.86-13.46,6.3-13.46,6.3,0,0-.29-.72-.29-2.29,0-11.88,14.75-19.19,43.96-19.19,24.91,0,35.37,8.88,35.37,22.19,0,17.75-20.19,27.78-46.11,31.65,2.58,10.45,9.74,31.64,23.63,41.09Zm-40.52-44.1c28.21-3.01,44.53-19.19,44.53-34.51,0-6.73-3.72-9.74-12.31-9.74-8.02,0-14.32,3.01-14.32,3.01-5.3,14.46-11.45,27.49-17.9,41.24Z" style="fill: #fff; stroke-width: 0px;"/>
    <path d="m121.34,163.4c0,3.58,2,4.87,4.44,4.87,9.45,0,18.62-10.31,24.2-18.33,0,0,1.72,1.86,1.72,5.15,0,11.31-17.33,20.05-35.08,20.05-9.45,0-14.32-5.3-14.32-13.03,0-23.05,31.79-47.97,53.41-47.97,5.44,0,8.45,3.01,8.45,7.87,0,12.74-16.61,23.2-37.52,25.06-3.15,6.01-5.3,12.17-5.3,16.32Zm35.65-40.09c-.14-1.15-.86-2.44-2.72-2.44-7.45,0-17.04,9.02-23.48,19.33,12.46-1.29,25.77-8.3,26.2-16.89Z" style="fill: #fff; stroke-width: 0px;"/>
    <path d="m246.48,180.37c0-5.01,1.43-7.73,1.43-7.73,0,0-10.88,11.03-24.91,11.03-15.04,0-24.2-10.74-24.2-24.77,0-37.51,43.96-71.59,79.18-71.59,11.31,0,15.89,4.01,15.89,9.02,0,7.02-7.02,8.45-7.02,8.45,0,0-2.29-8.88-12.17-8.88-25.06,0-54.41,42.81-54.41,69.16,0,6.16,3.44,9.31,8.16,9.31,16.04,0,33.08-26.06,33.08-38.23,5.73-.29,13.89,1.57,13.89,11.31,0,13.03-15.46,23.2-15.46,45.96-8.59,0-13.46-4.72-13.46-13.03Z" style="fill: #fff; stroke-width: 0px;"/>
    <path d="m297.25,162.75c0,3.58,2,4.87,4.44,4.87,9.45,0,18.62-10.31,24.2-18.33,0,0,1.72,1.86,1.72,5.15,0,11.31-17.33,20.05-35.08,20.05-9.45,0-14.32-5.3-14.32-13.03,0-23.05,31.79-47.97,53.41-47.97,5.44,0,8.45,3.01,8.45,7.87,0,12.74-16.61,23.2-37.52,25.06-3.15,6.01-5.3,12.17-5.3,16.32Zm35.65-40.09c-.14-1.15-.86-2.44-2.72-2.44-7.45,0-17.04,9.02-23.48,19.33,12.46-1.29,25.77-8.3,26.2-16.89Z" style="fill: #fff; stroke-width: 0px;"/>
    <path d="m369.73,166.14c0-14.17,13.03-27.78,13.03-35.37,0-1-.72-2-1.86-2-7.59,0-31.93,23.77-40.95,47.25-5.58,0-9.74-5.01-9.74-11.74,0-12.74,17.61-28.78,23.2-49.97,4.58,0,12.03.57,12.03,9.59,0,6.87-6.87,15.32-6.87,15.32,11.88-13.03,21.77-23.06,34.36-23.06,5.01,0,8.16,3.73,8.16,10.17,0,16.18-15.32,30.07-19.47,55.13-6.44,0-11.88-5.87-11.88-15.32Z" style="fill: #fff; stroke-width: 0px;"/>
  </g>
  <path d="m161.2,141.94c7.74-3.33,23.02,1.42,33.62.57.95,1.92,1.63,4.87-1.65,6.28-6.27,2.7-22.31-3.16-34.91.22-.95-2.2-.25-5.7,2.94-7.07Z" style="fill: #fff; stroke-width: 0px;"/>
</svg>