<?xml version="1.0" encoding="UTF-8"?>
<svg id="vegetation" xmlns="http://www.w3.org/2000/svg" width="419.19" height="285.74" viewBox="0 0 419.19 285.74">
  <path d="m276.6,102.32c-2.63-2.05-1.63-7.72,2.23-12.66,3.86-4.94,9.12-7.28,11.74-5.23,2.63,2.05,1.63,7.72-2.23,12.66-3.86,4.94-9.12,7.28-11.74,5.23Zm-121.04,30.43c-2.63-2.05-1.63-7.72,2.23-12.66,3.86-4.94,9.12-7.28,11.74-5.23,2.63,2.05,1.63,7.72-2.23,12.66-3.86,4.94-9.12,7.28-11.74,5.23Zm217.23,36.04c-.14,1.87-2.73,1.56-3.76,1.71-4.6.68-9.54.85-14.35,1.36-44,4.72-88.65,9.58-126.69,20.49-41.4,11.88-72.99,31.28-104.84,52.93-.84.57-2.02,1.43-3.07,2.05-.65.38-2.09,2.23-3.07.68-.62-1.32,1.33-2.2,2.05-2.73,2.81-2.06,6.1-4.06,9.22-6.15,28.67-19.2,59.56-37.25,96.99-48.15,42.98-12.52,92.04-17.81,143.08-22.54.57-.05,3.76-1.2,4.44.34Zm-58.05-46.44c-4.01,3.98-6.71,10.58-8.54,16.73-1.82,6.13-4.04,19.67,1.02,22.54,3.78,2.14,9.33-1.8,12.29-4.44,3.21-2.87,18.78-20.77,20.15-27.66.68-3.4,1.71-11.27,1.71-11.27-10.22-2.58-20.97-1.51-26.63,4.1Zm-79.57,22.2c5.56-3.1,11.86-7.46,14-13.32.83-2.27,1.66-8.56-.34-10.59-1.08-1.1-4.2-1.23-6.49-.68-6.4,1.53-11.85,8.06-16.05,13.32-4.74,5.93-8.61,12.13-11.95,17.76,7.44-.66,14.8-3.12,20.83-6.49Zm-84.35-54.98c-1.14-1.05-1.68-2.73-2.39-4.1-4.23-8.07-11.67-15.51-25.27-14.68-2.89.18-5.63.86-8.2,2.05-9.56,4.42-19.67,19.46-14,34.83,1.36,3.69,3.73,6.25,5.8,8.88,10.37,13.13,22.53,25.19,30.73,40.98,3,5.77,6.39,13.11,6.49,22.2.31,28.62-20.6,50.29-47.47,52.25-19.41,1.41-34.9-7.1-39.95-20.15-7.36-19.01,4.77-37.34,21.17-40.98,2.84-.63,5.44-1.12,9.9-1.37-.3,1.56-1.82,2.18-2.73,3.07-4.59,4.5-9.24,9.74-12.29,16.73-1.2,2.76-2.53,6.01-2.39,8.88.36,7.53,8.6,15.67,14.68,18.44,14.83,6.76,31.06-.28,38.25-10.25,2.76-3.82,5.2-10.05,5.12-16.05-.1-7.7-4.54-16.07-8.88-22.54-4.18-6.25-9.28-11.78-14-17.42-9.49-11.34-20.99-24.45-22.54-40.3-2.65-27.15,16.27-46.42,38.25-50.2,13.43-2.31,32.15,1.7,34.83,11.61,1.79,6.63-2.29,12.65-5.12,18.1Zm79.57,61.13c2.82,3.2,7.66,7.56,12.98,11.27,7.09,4.95,17.5,10.61,25.27,4.1-.75-17.39,4.18-31.99,5.8-48.15,8.18-2.8,14.65-11.14,16.05-11.27-2.05,13.41-5.69,30.43-8.2,46.1-.72,4.52-1.85,13.5,1.37,15.03,3.37,1.6,6.69-2.18,8.54-4.1-4.12-16.36,5.38-30.65,13.66-38.93,11.56-11.56,29.9-15.93,49.86-15.37-1.87,7.78-7.5,41.78-6.49,49.86,5.18,1.52,9.39-1.74,12.64-4.44,2.8-2.33,5.06-5.67,7.51-7.85.92,4.34-1.94,7.81-5.12,10.74-3.65,3.36-10.02,7.25-15.03,8.38-6.45,1.46-11.27-.03-12.97-4.44-.42-8.62,1.4-14.99,2.05-22.54-1.32.93-1.95,2.87-2.73,4.44-5.1,10.17-15.3,24.41-27.66,26.98-6.03,1.25-12.54-.57-14.68-5.12-5.01,4.08-10.96,9.34-18.78,7.51-.32-.07-2.35-.76-2.73-1.03-.64-.45-1.34-2.03-1.71-2.05-.78-.04-6.5,4.88-7.51,5.46-2.39,1.38-6.1,3.23-9.57,3.42-8.73.45-16.17-5.51-21.85-9.91-6.3-4.87-11-9.57-17.07-14.34-1.43,9.27-2.29,19.11-3.76,28.35-3.8.98-8.13,1.43-11.95,2.39-3.66,3.75-9.24,10.15-16.05,10.24-2.17.03-4.35-.8-6.15-2.05-4.52,4.21-11.32,12.26-20.83,10.59-10.31-1.81-6.03-21.34-4.44-32.44,1.16-8.11,2.7-16.12,3.42-22.88,9.26-3.11,15.87-12.61,16.05-11.27-1.85,7.58-8.99,46.61-8.54,54.98.12,2.26.9,5.48,2.39,6.15,4.31,1.92,8.07-4.08,10.58-6.15-5.11-8.23-.78-23.3.68-33.81,3.39-24.18,7.49-50.89,10.25-74.79,0,0,4.81-3.37,6.11-4.23,3.77-2.49,7.04-6.35,8.57-8.06-4.06,28.78-14.66,99.33-15.02,104.5-.41,5.84-.53,13.65,2.73,14.34,3.86.82,5.03-3.09,7.51-4.44-.81-1.23-.21-3.14,0-4.44.73-4.39,1.97-9.29,2.73-14.34,2.92-19.35,3.01-42.38,9.56-58.74,8.73-21.79,26.24-34.42,57.03-34.15-.45,2.54-1.92,1.33-4.78,1.71-15.33,2.03-30.64,6.83-36.54,19.12-2.73,5.7-7.7,40.88-8.88,48.49-.07.28,8.08-14.39,15.37-20.83,6.26-5.52,16.02-12,26.3-10.59,6.41.88,9.22,7.49,7.17,15.03-3.67,13.54-20.43,19.56-33.13,23.56Z" style="fill: #fff; fill-rule: evenodd; stroke-width: 0px;"/>
</svg>