<?xml version="1.0" encoding="UTF-8"?>
<svg id="vegetation" xmlns="http://www.w3.org/2000/svg" width="419.19" height="140.3" viewBox="0 0 419.19 140.3">
  <path d="m260.88,36.88c-2.05-1.6-1.27-6.02,1.74-9.87,3.01-3.85,7.11-5.68,9.16-4.08,2.05,1.6,1.27,6.02-1.74,9.88-3.01,3.85-7.11,5.68-9.16,4.08Zm-94.43,23.74c-2.05-1.6-1.27-6.02,1.74-9.87,3.01-3.85,7.11-5.68,9.16-4.08,2.05,1.6,1.27,6.02-1.74,9.87-3.01,3.85-7.11,5.68-9.16,4.08Zm169.47,28.12c-.11,1.46-2.13,1.22-2.93,1.33-3.59.53-7.45.66-11.19,1.06-34.33,3.69-69.16,7.47-98.84,15.99-32.3,9.27-56.95,24.4-81.79,41.3-.66.45-1.58,1.12-2.4,1.6-.51.3-1.63,1.74-2.4.53-.48-1.03,1.04-1.72,1.6-2.13,2.19-1.61,4.76-3.17,7.19-4.8,22.36-14.98,46.46-29.06,75.66-37.56,33.53-9.77,71.8-13.9,111.63-17.58.44-.04,2.94-.94,3.46.27Zm-45.29-36.23c-3.13,3.1-5.23,8.25-6.66,13.05-1.42,4.78-3.15,15.35.8,17.58,2.95,1.67,7.28-1.4,9.59-3.46,2.5-2.24,14.65-16.21,15.72-21.58.53-2.65,1.33-8.79,1.33-8.79-7.97-2.01-16.36-1.18-20.78,3.2Zm-62.08,17.32c4.34-2.42,9.25-5.82,10.92-10.39.65-1.77,1.29-6.68-.26-8.26-.85-.86-3.28-.96-5.06-.53-5,1.19-9.24,6.29-12.52,10.39-3.7,4.63-6.72,9.47-9.32,13.85,5.8-.52,11.54-2.43,16.25-5.06Zm-65.8-42.89c-.89-.82-1.31-2.13-1.86-3.2-3.3-6.29-9.11-12.1-19.71-11.46-2.25.14-4.39.67-6.39,1.6-7.46,3.45-15.34,15.19-10.92,27.17,1.06,2.88,2.91,4.88,4.53,6.93,8.09,10.24,17.58,19.65,23.98,31.97,2.34,4.5,4.98,10.23,5.06,17.32.24,22.33-16.07,39.24-37.03,40.76-15.14,1.1-27.23-5.54-31.17-15.72-5.74-14.83,3.72-29.13,16.52-31.97,2.22-.49,4.24-.87,7.73-1.07-.23,1.22-1.42,1.7-2.13,2.4-3.58,3.51-7.21,7.6-9.59,13.05-.94,2.15-1.97,4.69-1.86,6.93.28,5.87,6.71,12.22,11.46,14.39,11.57,5.28,24.23-.22,29.84-7.99,2.15-2.98,4.06-7.84,4-12.52-.08-6-3.55-12.53-6.93-17.58-3.26-4.87-7.24-9.19-10.92-13.59-7.4-8.85-16.38-19.07-17.58-31.44-2.07-21.18,12.69-36.21,29.84-39.16,10.48-1.8,25.08,1.33,27.17,9.06,1.4,5.17-1.79,9.87-4,14.12Zm62.07,47.69c2.2,2.49,5.98,5.9,10.12,8.79,5.53,3.86,13.65,8.28,19.72,3.2-.59-13.57,3.26-24.96,4.53-37.56,6.38-2.18,11.43-8.69,12.52-8.79-1.6,10.47-4.44,23.74-6.4,35.97-.56,3.53-1.44,10.53,1.07,11.72,2.63,1.24,5.22-1.7,6.66-3.2-3.22-12.77,4.2-23.91,10.66-30.37,9.02-9.02,23.32-12.43,38.9-11.99-1.46,6.07-5.85,32.59-5.06,38.9,4.04,1.18,7.33-1.35,9.86-3.46,2.19-1.82,3.95-4.43,5.86-6.13.72,3.39-1.51,6.1-4,8.38-2.85,2.62-7.82,5.66-11.72,6.54-5.03,1.14-8.79-.02-10.12-3.46-.33-6.72,1.09-11.69,1.6-17.58-1.03.73-1.52,2.24-2.13,3.46-3.98,7.93-11.93,19.04-21.58,21.05-4.7.98-9.79-.44-11.46-4-3.91,3.19-8.55,7.29-14.65,5.86-.25-.06-1.83-.59-2.13-.8-.5-.35-1.04-1.59-1.34-1.6-.61-.03-5.07,3.8-5.86,4.26-1.86,1.08-4.76,2.52-7.46,2.66-6.81.35-12.62-4.3-17.05-7.73-4.91-3.8-8.58-7.47-13.32-11.19-1.11,7.23-1.79,14.91-2.93,22.11-2.97.76-6.34,1.12-9.32,1.86-2.86,2.93-7.21,7.92-12.52,7.99-1.7.02-3.39-.62-4.8-1.6-3.53,3.29-8.83,9.56-16.25,8.26-8.05-1.41-4.7-16.65-3.46-25.31.91-6.33,2.1-12.57,2.66-17.85,7.23-2.42,12.38-9.84,12.52-8.79-1.44,5.91-7.02,36.37-6.66,42.89.1,1.76.7,4.28,1.86,4.8,3.36,1.5,6.3-3.18,8.26-4.8-3.98-6.42-.61-18.18.53-26.38,2.64-18.87,5.85-39.7,8-58.35,0,0,3.75-2.63,4.77-3.3,2.94-1.94,5.49-4.95,6.69-6.29-3.17,22.45-11.44,77.49-11.72,81.52-.32,4.56-.42,10.65,2.13,11.19,3.01.64,3.92-2.41,5.86-3.46-.63-.96-.16-2.45,0-3.46.57-3.43,1.54-7.25,2.13-11.19,2.28-15.09,2.35-33.06,7.46-45.82,6.81-17,20.47-26.85,44.49-26.64-.35,1.98-1.5,1.04-3.73,1.33-11.96,1.58-23.91,5.33-28.51,14.92-2.13,4.45-6.01,31.89-6.93,37.83-.05.22,6.3-11.23,11.99-16.25,4.88-4.31,12.5-9.36,20.51-8.26,5,.69,7.19,5.85,5.59,11.72-2.87,10.56-15.93,15.26-25.84,18.38Z" style="fill: #fff; fill-rule: evenodd; stroke-width: 0px;"/>
</svg>