<?xml version="1.0" encoding="UTF-8"?>
<svg id="vegetation" xmlns="http://www.w3.org/2000/svg" width="419.19" height="285.74" viewBox="0 0 419.19 285.74">
  <path d="m350.61,64.55c-10.75.81-19.15,3.52-25.73,7.31l-1.16,4.59-4.82-.5c-18.42,14.98-17.53,39.08-17.53,39.08,6.9-13,18.22-19.41,30.72-22.15-.19-.15-.38-.32-.57-.5l2.82-10.77,5.64,9.86s-.06.07-.17.16c7.16-.77,14.49-.58,21.42.07,3.35.3,6.44-.2,9.28-1.26l-.6-8.62,6.11,5.68c12-8.37,17.96-26.09,17.96-26.09-8.46,3.13-43.39,3.13-43.39,3.13Zm-7.59-6v-2.98l2.46,3.54c2.46.65,5.03,1.62,7.74,2.98,0,0-6.29-26.7-27.55-18.85,0,0-5.35,2.64-10.85,8.86l1.95,2.8h-4.23c-5.9,7.85-11.12,20.07-9,37.92,0,0,10.73-39.66,39.47-34.27Zm-61.82,8.02c-27.76-13.46-33.84,25.35-33.84,25.35,5.76-5.14,11.53-7.82,17.03-8.88l1.62-3.68.86,3.31c18.8-2.01,33.85,14.19,33.85,14.19,9.55-14.58-19.53-30.29-19.53-30.29Z" style="fill: #fff; stroke-width: 0px;"/>
  <g>
    <path d="m157.39,155.67c0-.92-.03-1.47-.03-1.47-1.68-7.87-10.03-1-11.89,3.81-1.57,2.93-5.47,8.31-6.98,10.36,4.94-23.82-13.08-11.69-13.08-11.69,3.45,4.53-3.93,58.87-3.93,58.87-1.8,14.26,9.42,8.22,9.42,8.22,13.77-66.84,19.92-47.64,19.92-47.64,1.65-.99,2.9-2.62,3.83-4.56,1.85-3.19,3.52-8.3,2.74-15.91Z" style="fill: #fff; stroke-width: 0px;"/>
    <path d="m274.38,119.68c4.83.33,9.08-4.76,9.5-11.39.42-6.64-3.16-12.3-7.99-12.64-4.83-.35-9.08,4.76-9.5,11.4-.42,6.63,3.16,12.29,7.99,12.64Z" style="fill: #fff; stroke-width: 0px;"/>
    <path d="m125.39,119.78l41.39-2.69c12.07-2.02,14.35-25.74,14.35-25.74-9.65,8.46-95.83,10.31-95.83,10.31-46.78,12.78-38.07,68.22-38.07,68.22,13.39-1.44,11.5-12.78,11.5-12.78-11.2-41.82,25.57-37.85,25.57-37.85l22.39-1.27c-19.42,81.31-17.05,138.14-17.05,138.14,7.27,16.1,24.03-.35,24.03-.35-14.6-51.42,11.71-135.98,11.71-135.98Z" style="fill: #fff; stroke-width: 0px;"/>
    <path d="m327.76,164.91c-.04-1.2-.66-4.92-1.78-5.78-2.9,6.34-7.15,14.5-11.38,18.66-1.25,1.01-2.4,1.81-3.45,2.39-.03.02-.06.04-.1.05,0,0,0,.01-.02.02-9.49,5.15-11.52-5.99-11.94-11.93.01-.46.01-.91.04-1.4,0,0-1.12-28.95,11.45-37.9,1.93-1.23,5.47-2.81,7.58.4.66,1.23,1.28,3.07,1.69,5.81.03.39.02.78-.09,1.02-.28.69,8.72-10.09,9.43-13.33,0,0-2.01-10.68-15.09-6.22,0,0-21,9.28-28.22,42.38,0,0-2.3,9.94-1.59,19.46l-6.77,4.43c-11.76,8.08.91-43.19.91-43.19,5.9-21.9-15.1-6.55-15.1-6.55,6.15-5.08-4.86,53.52-4.86,53.52-2.5,16.78,7.91,13.97,14.62,9.59,2.52-1.34,6.9-3.92,13.25-8.47,1.76,4.07,4.78,7.1,9.79,7.69,0,0,15.69,2.38,30.41-23.12.73-2.45,1.26-4.98,1.19-7.54Z" style="fill: #fff; stroke-width: 0px;"/>
    <path d="m197.87,190.11c1.07-4.59,1.69-9.11,1.89-13.39,2.14-2.17,5.56-3.44,7.75-4.06-5.31,32.07-14.26,74.72-14.26,74.72-1.73,15.6,12.97,2.63,12.97,2.63.26-5.36,3.46-24.35,7.11-44.69,1.04,2.25,2.49,3.87,4.35,4.68,8.42,3.65,22.04-10.75,30.43-32.17,8.38-21.4,8.36-41.72-.06-45.38-6.77-2.94-16.9,5.79-24.97,20.45.85-4.43,1.35-7.06,1.35-7.06,1.85-13.58-13.14-6-13.14-6,.16,1.73.04,4.52-.3,8.1l-.08-.15c-1.13,14.56-8.22,16.48-11.8,16.5-1.66-9.69-5.98-16.73-12.27-18.38-11.16-2.92-24.3,12.16-29.34,33.64-5.05,21.49-.1,41.28,11.05,44.2,11.15,2.91,24.29-12.15,29.34-33.64Zm19.62-2.75s13.18-32.37,16.76-34.66c0,0,3.83-3.42,3.67,5.7,0,0-2.78,26.02-8.32,36.22v-.03c-.09.17-.16.33-.24.49-.26.44-.52.84-.78,1.2-.53.65-1.08,1.05-1.57,1.29-8.14,1.89-9.4-8.08-9.57-10.1.02-.04.02-.08.05-.11Zm-49.3-3.24c2.32-15.06,8.11-26.59,12.92-25.77.53.09,1.01.35,1.47.71-1.82,1.58-2.93,4-2.79,6.68.22,3.98,3.13,7.11,6.77,7.57.12,4.14-.16,8.85-.93,13.81-2.33,15.06-8.12,26.6-12.92,25.77-4.82-.82-6.83-13.72-4.51-28.77Z" style="fill: #fff; stroke-width: 0px;"/>
  </g>
  <g>
    <path d="m112.74,35.07c-5.25.67-8.65,5.26-7.94,11.18.27,2.25,1.79,5.13,4.48,8.58,2.71,3.59,4.28,6.89,4.64,9.92,1.08,9.09-7.95,18.04-19.19,19.48-4.63.59-7.99-.84-8.41-4.43-.29-2.47.82-4.11,3.35-4.94,1.09,3.3,3.74,4.67,7.9,4.14,5.45-.7,8.42-4.22,7.77-9.65-.24-2.04-1.84-4.99-4.71-8.7-2.93-3.7-4.56-6.93-4.89-9.68-1.14-9.58,7.47-19.12,18.79-20.57,5.18-.66,7.95.55,8.31,3.58.28,2.33-.71,3.89-2.9,4.67-1.24-2.85-3.66-4.04-7.21-3.59v-.07s0,.07,0,.07Z" style="fill: #fff; stroke-width: 0px;"/>
    <path d="m127.09,53.48c.31,2.61-.45,6.14-2.21,10.44-1.77,4.31-2.62,6.99-2.51,7.98.08.63.39.95,1,.87,4.09-.52,13.56-15.68,16.11-26.16,2.66-.34,4.87,1.95,5.27,5.26.16,1.34-.05,3.08-.62,5.23l-2.03,6.2c-1.98,6.05-2.53,11.27-2.05,15.86-4.09.52-6.67-2.58-7.35-8.22-.25-2.04-.15-3.56.22-4.53-4.95,8.43-9.81,12.91-14.51,13.51-2.39.31-4.33-1.45-4.72-4.76-.32-2.68.64-6.8,2.82-12.3,2.44-6.25,3.75-11.49,3.92-15.88,3.48-.44,6.14,2.22,6.66,6.52v-.07s0,.07,0,.07Z" style="fill: #fff; stroke-width: 0px;"/>
    <path d="m164.75,50.25c-4.23.54-14.7,15.97-17.13,26.37-2.79.36-5-1.93-5.41-5.32-.26-2.19.87-6.05,3.32-11.58,2.77-6.36,4.45-11.37,4.91-15.08,3.89-.5,6.05.87,6.44,4.12.28,2.32-.51,5-2.41,8.18,7.26-10.44,10.2-13.11,15.37-13.77,2.66-.34,4.15,1.18,4.56,4.57.33,2.74-.48,7-2.49,12.76-2.27,6.51-3.49,11.89-3.66,16.28-3.48.44-6.18-2.5-6.72-7.01-.31-2.61.37-6.13,1.99-10.56,1.61-4.42,2.33-7.09,2.22-8.08-.08-.63-.39-.95-1-.88v-.07s0,.07,0,.07Z" style="fill: #fff; stroke-width: 0px;"/>
  </g>
</svg>