<?xml version="1.0" encoding="UTF-8"?>
<svg id="vegetation" xmlns="http://www.w3.org/2000/svg" width="419.19" height="140.3" viewBox="0 0 419.19 140.3">
  <path d="m302.74,20.97c-6.43.48-11.45,2.1-15.38,4.37l-.7,2.74-2.88-.3c-11.01,8.95-10.48,23.36-10.48,23.36,4.12-7.77,10.89-11.6,18.36-13.24-.11-.09-.23-.19-.34-.3l1.69-6.44,3.37,5.9s-.04.04-.1.1c4.28-.46,8.66-.35,12.8.04,2,.18,3.85-.12,5.55-.75l-.36-5.15,3.65,3.4c7.17-5,10.73-15.6,10.73-15.6-5.06,1.87-25.93,1.87-25.93,1.87Zm-4.54-3.59v-1.78l1.47,2.12c1.47.39,3.01.97,4.63,1.78,0,0-3.76-15.96-16.47-11.27,0,0-3.2,1.57-6.48,5.3l1.17,1.68h-2.53c-3.53,4.69-6.64,12-5.38,22.66,0,0,6.41-23.7,23.59-20.49Zm-36.95,4.8c-16.59-8.04-20.22,15.15-20.22,15.15,3.44-3.07,6.89-4.68,10.18-5.31l.97-2.2.51,1.98c11.23-1.2,20.23,8.48,20.23,8.48,5.71-8.72-11.67-18.1-11.67-18.1Z" style="fill: #fff; stroke-width: 0px;"/>
  <g>
    <path d="m187.25,75.44c0-.55-.02-.88-.02-.88-1-4.71-5.99-.59-7.1,2.28-.94,1.75-3.27,4.97-4.17,6.19,2.95-14.24-7.82-6.99-7.82-6.99,2.06,2.71-2.35,35.18-2.35,35.18-1.08,8.52,5.63,4.92,5.63,4.92,8.23-39.95,11.91-28.47,11.91-28.47.99-.59,1.73-1.57,2.29-2.72,1.11-1.91,2.11-4.96,1.64-9.51Z" style="fill: #fff; stroke-width: 0px;"/>
    <path d="m257.17,53.92c2.89.2,5.43-2.84,5.68-6.81.25-3.97-1.89-7.35-4.77-7.56-2.89-.21-5.43,2.84-5.68,6.81-.25,3.96,1.89,7.35,4.77,7.56Z" style="fill: #fff; stroke-width: 0px;"/>
    <path d="m168.12,53.99l24.74-1.61c7.22-1.21,8.57-15.39,8.57-15.39-5.77,5.06-57.28,6.16-57.28,6.16-27.96,7.64-22.76,40.78-22.76,40.78,8-.86,6.88-7.64,6.88-7.64-6.69-25,15.29-22.62,15.29-22.62l13.38-.76c-11.61,48.6-10.19,82.57-10.19,82.57,4.34,9.62,14.36-.21,14.36-.21-8.73-30.73,7-81.28,7-81.28Z" style="fill: #fff; stroke-width: 0px;"/>
    <path d="m289.08,80.95c-.02-.72-.4-2.94-1.06-3.45-1.73,3.79-4.27,8.67-6.8,11.15-.74.6-1.43,1.08-2.06,1.43-.02.01-.03.02-.06.03,0,0,0,0-.01.01-5.67,3.08-6.89-3.58-7.14-7.13,0-.27,0-.54.02-.84,0,0-.67-17.3,6.84-22.65,1.16-.74,3.27-1.68,4.53.24.39.74.77,1.84,1.01,3.47.02.24.01.46-.05.61-.17.41,5.21-6.03,5.64-7.97,0,0-1.2-6.38-9.02-3.72,0,0-12.55,5.55-16.87,25.33,0,0-1.38,5.94-.95,11.63l-4.04,2.65c-7.03,4.83.55-25.81.55-25.81,3.52-13.09-9.03-3.92-9.03-3.92,3.67-3.03-2.9,31.99-2.9,31.99-1.5,10.03,4.73,8.35,8.74,5.73,1.51-.8,4.13-2.34,7.92-5.06,1.05,2.43,2.86,4.24,5.85,4.59,0,0,9.38,1.42,18.18-13.82.43-1.46.75-2.98.71-4.5Z" style="fill: #fff; stroke-width: 0px;"/>
    <path d="m211.45,96.02c.64-2.74,1.01-5.44,1.13-8,1.28-1.29,3.32-2.05,4.63-2.43-3.18,19.17-8.52,44.66-8.52,44.66-1.04,9.32,7.75,1.57,7.75,1.57.15-3.2,2.07-14.55,4.25-26.71.62,1.35,1.49,2.31,2.6,2.8,5.03,2.18,13.18-6.43,18.18-19.23,5.01-12.79,4.99-24.93-.04-27.12-4.05-1.75-10.1,3.46-14.92,12.22.51-2.65.81-4.22.81-4.22,1.1-8.12-7.86-3.59-7.86-3.59.1,1.03.03,2.7-.18,4.84l-.05-.09c-.67,8.7-4.91,9.85-7.06,9.86-.99-5.79-3.57-10-7.34-10.98-6.67-1.74-14.52,7.27-17.54,20.11-3.02,12.84-.06,24.67,6.6,26.42,6.66,1.74,14.52-7.26,17.54-20.11Zm11.73-1.65s7.88-19.35,10.02-20.71c0,0,2.29-2.04,2.2,3.4,0,0-1.66,15.55-4.97,21.65v-.02c-.05.1-.1.2-.15.29-.15.26-.31.5-.47.72-.32.39-.65.63-.94.77-4.87,1.13-5.62-4.83-5.72-6.04.01-.03.01-.05.03-.06Zm-29.47-1.94c1.39-9,4.85-15.9,7.72-15.4.31.06.6.21.88.42-1.09.94-1.75,2.39-1.67,3.99.13,2.38,1.87,4.25,4.05,4.53.07,2.47-.1,5.29-.56,8.26-1.39,9-4.85,15.9-7.72,15.4-2.88-.49-4.08-8.2-2.69-17.2Z" style="fill: #fff; stroke-width: 0px;"/>
  </g>
  <g>
    <path d="m160.57,3.35c-3.14.4-5.17,3.14-4.74,6.68.16,1.35,1.07,3.07,2.68,5.13,1.62,2.14,2.56,4.12,2.78,5.93.65,5.43-4.75,10.78-11.47,11.64-2.77.35-4.77-.5-5.03-2.65-.18-1.47.49-2.46,2-2.95.65,1.97,2.24,2.79,4.72,2.48,3.26-.42,5.03-2.52,4.65-5.77-.15-1.22-1.1-2.98-2.81-5.2-1.75-2.21-2.73-4.14-2.92-5.78-.68-5.73,4.47-11.43,11.23-12.29,3.1-.39,4.75.33,4.97,2.14.17,1.39-.43,2.32-1.73,2.79-.74-1.7-2.19-2.42-4.31-2.15v-.04s0,.04,0,.04Z" style="fill: #fff; stroke-width: 0px;"/>
    <path d="m169.14,14.36c.19,1.56-.27,3.67-1.32,6.24-1.06,2.58-1.57,4.18-1.5,4.77.05.38.23.57.6.52,2.45-.31,8.1-9.37,9.63-15.64,1.59-.2,2.91,1.17,3.15,3.14.1.8-.03,1.84-.37,3.13l-1.21,3.7c-1.18,3.61-1.51,6.73-1.22,9.48-2.44.31-3.99-1.54-4.39-4.91-.15-1.22-.09-2.13.13-2.71-2.96,5.04-5.86,7.72-8.67,8.07-1.43.18-2.59-.87-2.82-2.85-.19-1.6.38-4.07,1.69-7.35,1.46-3.74,2.24-6.87,2.34-9.49,2.08-.26,3.67,1.33,3.98,3.89v-.04s0,.04,0,.04Z" style="fill: #fff; stroke-width: 0px;"/>
    <path d="m191.65,12.42c-2.53.32-8.79,9.55-10.24,15.76-1.67.21-2.99-1.16-3.23-3.18-.16-1.31.52-3.62,1.98-6.92,1.66-3.8,2.66-6.8,2.94-9.01,2.32-.3,3.62.52,3.85,2.46.17,1.39-.3,2.99-1.44,4.89,4.34-6.24,6.09-7.83,9.19-8.23,1.59-.2,2.48.71,2.72,2.73.2,1.64-.29,4.18-1.49,7.63-1.35,3.89-2.09,7.11-2.19,9.73-2.08.26-3.69-1.49-4.01-4.19-.19-1.56.22-3.66,1.19-6.31.97-2.64,1.4-4.24,1.33-4.83-.05-.38-.23-.57-.6-.52v-.04s0,.04,0,.04Z" style="fill: #fff; stroke-width: 0px;"/>
  </g>
</svg>