<?xml version="1.0" encoding="UTF-8"?>
<svg id="Objects" xmlns="http://www.w3.org/2000/svg" width="57.49" height="57.33" viewBox="0 0 57.49 57.33">
  <path d="m14.39,24.26h8.19c.05-.57.11-1.02.12-1.46.01-1.93,0-3.86,0-5.79.01-2.22.43-4.35,1.43-6.35,1.93-3.86,5.1-5.83,9.4-5.83,2.66,0,5.32.21,7.98.33.16,0,.32.08.63.16.1,2.5.05,5,.04,7.63-.54.04-.95.1-1.36.11-1.07.03-2.15.01-3.22.05-1.05.04-2.04.3-2.92.89-.89.6-1.64,1.4-1.68,2.48-.09,2.52-.03,5.04-.03,7.73h8.58c.19,1.12-.82,7.91-1.39,9.53h-7.24v22.96c-1.05.37-8.17.47-10.12.17-.04-.5-.11-1.03-.11-1.57,0-6.61,0-13.21,0-19.82v-1.7h-8.26c-.33-1.18-.35-8.15-.05-9.5Z" style="fill: #fff;"/>
</svg>