<?xml version="1.0" encoding="UTF-8"?>
<svg id="Layer_1" data-name="Layer 1" xmlns="http://www.w3.org/2000/svg" width="177" height="41" viewBox="0 0 177 41">
  <path d="m40.92,27.37v1.36c0,.44-.36.8-.81.8h-10.66c-.44,0-.8-.36-.8-.8V12.37c0-.44.36-.8.8-.8h1.63c.43,0,.8.37.8.8v14.2h8.23c.44,0,.81.36.81.81Z" style="fill: #234090; stroke-width: 0px;"/>
  <path d="m46.6,12.37v16.36c0,.43-.38.8-.81.8h-1.63c-.43,0-.81-.37-.81-.8V12.37c0-.43.38-.8.81-.8h1.63c.43,0,.81.37.81.8Z" style="fill: #234090; stroke-width: 0px;"/>
  <path d="m65.46,12.37v16.64c0,.42-.37.78-.8.78h-.22c-.34,0-.61-.03-.97-.46l-9.87-11.77v11.18c0,.44-.36.8-.81.8h-1.55c-.43,0-.81-.37-.81-.8V12.09c0-.42.37-.78.81-.78h.2c.33,0,.6.04,1,.49l9.84,11.41v-10.85c0-.44.36-.8.8-.8h1.58c.43,0,.8.37.8.8Z" style="fill: #234090; stroke-width: 0px;"/>
  <path d="m96.67,11.31c-5.08,0-9.21,4.15-9.21,9.26s4.05,9.21,9.21,9.21,9.23-4.05,9.23-9.21-4.14-9.26-9.23-9.26Zm0,15.4c-3.29,0-6.07-2.81-6.07-6.14s2.78-6.19,6.07-6.19,6.09,2.84,6.09,6.19-2.74,6.14-6.09,6.14Z" style="fill: #234090; stroke-width: 0px;"/>
  <path d="m128.99,24.08c.33,0,.56.35.41.65-1.48,3.02-4.58,5.05-8.25,5.05-3.91,0-7.17-2.32-8.52-5.7-.42-1.07-.66-2.23-.66-3.47s.25-2.47.72-3.57c1.39-3.31,4.66-5.65,8.46-5.65,3.56,0,6.65,2.04,8.18,5.01.15.29-.07.64-.4.64h-1.13c-.19,0-.36-.1-.46-.27-1.3-2.11-3.61-3.55-6.19-3.55s-5.06,1.56-6.32,3.82c-.59,1.07-.94,2.29-.94,3.57s.33,2.43.89,3.47c1.25,2.28,3.67,3.87,6.37,3.87s4.99-1.44,6.26-3.59c.1-.17.27-.27.47-.27h1.11Z" style="fill: #234090; stroke-width: 0px;"/>
  <path d="m82.33,23.85c-.21,0-.4.11-.53.28-1.1,1.56-2.92,2.58-4.96,2.58-3.29,0-6.07-2.81-6.07-6.14s2.78-6.19,6.07-6.19c1.99,0,3.8,1.03,4.92,2.59.12.17.31.28.52.28h2.32c.41,0,.69-.43.5-.8-1.51-3.04-4.65-5.14-8.27-5.14-5.22,0-9.44,4.38-9.2,9.68.24,5.3,5.03,9.32,10.3,8.72,3.19-.36,5.83-2.28,7.17-5,.2-.4-.09-.87-.54-.87h-2.25Z" style="fill: #234090; stroke-width: 0px;"/>
  <path d="m130.22,28.56l7.51-16.64c.07-.15.2-.27.42-.27h.25c.22,0,.35.12.42.27l7.46,16.64c.15.32-.05.64-.42.64h-.99c-.22,0-.37-.15-.42-.27l-1.83-4.08h-8.78l-1.8,4.08c-.05.12-.2.27-.42.27h-.99c-.37,0-.57-.32-.42-.64Zm11.74-5.24c-1.21-2.69-2.4-5.41-3.61-8.11h-.2l-3.61,8.11h7.42Z" style="fill: #234090; stroke-width: 0px;"/>
  <path d="m148.85,12.37c0-.25.2-.47.47-.47h6.4c2.97,0,5.39,2.32,5.39,5.27,0,2.27-1.51,4.18-3.66,5.04l3.39,6.28c.17.32,0,.72-.42.72h-1.19c-.3,0-.42-.12-.54-.37l-3.21-6.4h-4.72v6.3c0,.25-.22.47-.47.47h-.96c-.27,0-.47-.22-.47-.47V12.37Zm6.75,8.43c1.9,0,3.56-1.58,3.56-3.61,0-1.88-1.66-3.49-3.56-3.49h-4.8v7.09h4.8Z" style="fill: #234090; stroke-width: 0px;"/>
  <path d="m164.92,12.37c0-.25.2-.47.47-.47h9.74c.27,0,.47.22.47.47v.72c0,.25-.2.47-.47.47h-8.31v6.03h7.09c.25,0,.47.22.47.47v.72c0,.27-.22.47-.47.47h-7.09v6.3h8.31c.27,0,.47.22.47.47v.72c0,.25-.2.47-.47.47h-9.74c-.27,0-.47-.22-.47-.47V12.37Z" style="fill: #234090; stroke-width: 0px;"/>
  <g>
    <path d="m17.69,32.8c-4.11,4.32-10.54,2.82-13.86-1.42-1.46-1.86-2.15-3.39-2.38-7.32-.43-7.2,2.83-13.22,5.33-16.79-.76,1.65-1.28,3.55-1.29,5.63,0,2.29.36,3.23,1.13,4.35,1.01,1.46,2.6,2.44,4.27,2.63.19.02.38.03.57.03,1,0,1.94-.3,2.76-.88.48.25.87.41,1.12.52,4.86,2.14,6.89,8.46,2.35,13.24Z" style="fill: #234090; stroke-width: 0px;"/>
    <path d="m14.39,18.17c-.24.22-.48.4-.74.56-.81.49-1.73.7-2.7.59-1.5-.17-2.95-1.06-3.86-2.39-.72-1.04-1.04-1.87-1.03-4.03,0-2.44.76-4.62,1.77-6.45.56-1.03,1.21-1.95,1.85-2.73-.04,1.42.08,3.36.91,4.72.17.27.35.51.35.52.97,1.28,2.1,1.86,2.59,2.1l.08.04c1.26.65,2.12,1.85,2.3,3.21.19,1.4-.34,2.77-1.51,3.85Z" style="fill: #6ca3cf; stroke-width: 0px;"/>
  </g>
</svg>